<?xml version="1.0" encoding="UTF-8" standalone="no"?>
<!-- Created with Inkscape (http://www.inkscape.org/) -->

<svg
   width="113.07964mm"
   height="112.91389mm"
   viewBox="0 0 113.07964 112.91391"
   version="1.1"
   id="svg5"
   inkscape:version="1.1.2 (b8e25be833, 2022-02-05)"
   sodipodi:docname="logo_andatranqui_vec.svg"
   xmlns:inkscape="http://www.inkscape.org/namespaces/inkscape"
   xmlns:sodipodi="http://sodipodi.sourceforge.net/DTD/sodipodi-0.dtd"
   xmlns="http://www.w3.org/2000/svg"
   xmlns:svg="http://www.w3.org/2000/svg">
  <sodipodi:namedview
     id="namedview7"
     pagecolor="#ffffff"
     bordercolor="#666666"
     borderopacity="1.0"
     inkscape:pageshadow="2"
     inkscape:pageopacity="0.0"
     inkscape:pagecheckerboard="0"
     inkscape:document-units="mm"
     showgrid="false"
     inkscape:zoom="0.7198092"
     inkscape:cx="-20.144227"
     inkscape:cy="327.17003"
     inkscape:window-width="1920"
     inkscape:window-height="1001"
     inkscape:window-x="-9"
     inkscape:window-y="-9"
     inkscape:window-maximized="1"
     inkscape:current-layer="layer1"
     fit-margin-top="0"
     fit-margin-left="0"
     fit-margin-right="0"
     fit-margin-bottom="0" />
  <defs
     id="defs2" />
  <g
     inkscape:label="Capa 1"
     inkscape:groupmode="layer"
     id="layer1"
     transform="translate(-25.274582,-28.775867)">
    <path
       style="fill:#000000;stroke-width:0.4101"
       d="m 129.23307,141.11156 c -0.46358,-0.23497 -6.00392,-5.63021 -12.33957,-11.93801 l -11.51937,-11.46874 2.46007,-2.32419 c 2.61261,-2.46829 5.61889,-5.60185 6.11266,-6.37145 0.39309,-0.61266 23.19741,22.03999 23.93952,23.82145 2.23208,5.35807 -3.99741,10.64098 -8.65331,8.28094 z M 64.826594,124.14504 C 46.077207,120.73905 31.500452,107.20993 26.61118,88.676176 25.365753,83.955156 24.865484,73.737919 25.653037,69.107705 29.0965,48.862854 44.419732,33.256441 64.615306,29.425401 c 4.948126,-0.938641 13.035626,-0.849702 18.211965,0.200274 18.265119,3.704949 32.336869,17.270216 37.197919,35.859076 1.57234,6.197203 1.73718,11.907432 0.82665,18.242075 -1.50082,10.26416 -5.76728,18.776784 -13.33496,26.606494 -7.27289,7.52472 -16.752559,12.47464 -26.754249,13.97003 -3.896624,0.5826 -12.317978,0.49894 -15.936037,-0.15831 z m 19.090347,-11.08532 c 12.619461,-4.0279 21.829479,-13.292834 25.686479,-25.839634 1.93703,-7.464034 2.10814,-14.013487 -0.0109,-20.915128 C 105.87586,54.102223 96.599564,44.565857 84.736724,40.752239 76.94327,38.246825 67.845552,38.440248 60.335737,41.271019 48.471124,45.743304 40.309982,54.621406 36.616029,67.074526 c -1.194537,4.027051 -1.259936,14.132825 -0.121085,18.71021 3.152509,12.67084 12.888147,23.028404 25.464751,27.091484 7.895073,1.81198 14.924637,2.40133 21.957246,0.1835 z M 66.897765,108.91833 C 60.02445,107.3884 54.348062,104.19381 49.575717,99.169776 37.56661,86.527306 37.470814,67.178236 49.35496,54.580425 c 4.54157,-4.814305 9.272084,-7.690565 15.574974,-9.469918 4.571688,-1.290628 12.155431,-1.295805 16.648782,-0.01085 9.328948,2.666736 16.770256,8.77619 20.817174,17.091295 4.27206,9.587504 4.44082,18.971108 0.9202,27.489274 -3.61415,8.63059 -12.051859,15.968094 -21.465506,18.666574 -4.105715,1.17694 -11.042998,1.44232 -14.952819,0.57202 z M 76.58168,98.905796 c 8.990927,-1.67797 15.572231,-9.91761 15.038329,-18.827611 -0.349611,-5.834552 -4.653888,-13.076446 -13.977563,-23.51711 -3.065529,-3.432786 -4.236445,-4.046814 -5.78375,-3.032967 -1.476454,0.967408 -8.439069,9.22194 -11.291658,13.386831 -3.973769,5.801864 -5.477169,9.320256 -5.681842,13.297165 C 54.290825,91.761056 65.07557,101.05318 76.58168,98.905796 Z M 60.838101,85.856786 c -1.442417,-3.577465 -0.869372,-7.677102 0.488194,-10.324556 0.757717,-1.466117 2.121827,-3.772931 3.031357,-5.126271 2.129714,-3.168886 8.425431,-10.867654 8.887101,-10.867654 0.624185,0 6.634006,7.452367 9.343818,11.586631 1.441914,2.19988 2.99611,5.060334 3.45377,6.356557 1.470174,4.163977 0.400963,8.521113 -2.995116,12.205433 -2.622643,2.84522 -5.180535,4.00276 -9.177749,4.15327 -5.694206,0.50579 -10.991277,-3.65525 -13.031375,-7.98341 z"
       id="path1038"
       sodipodi:nodetypes="sscsssssssssccssscccsssscccssscccsccsssssssccssssscc" />
  </g>
</svg>
